<svg width="800" height="940.0" xmlns="http://www.w3.org/2000/svg" style="font-family: Arial, sans-serif;"><rect x="0" y="0" width="800" height="40" fill="white" stroke="black" stroke-width="1"/><text x="10" y="25.0" font-size="14">Start</text><rect x="0" y="40" width="800" height="40" fill="white" stroke="black" stroke-width="1"/><text x="10" y="65.0" font-size="14">Ausgabe: === Zahlerraten-Spiel startet ===</text><rect x="0" y="80" width="800" height="40" fill="white" stroke="black" stroke-width="1"/><text x="10" y="105.0" font-size="14">init values</text><rect x="0" y="120" width="800" height="40" fill="white" stroke="black" stroke-width="1"/><text x="10" y="145.0" font-size="14">Ausgabe: Anzeige auf LCD: Zahl 0-9 S1:- S2:+ S3:X, geratene_zahl</text><rect x="0" y="160" width="800" height="60.0" fill="#f0f0f0" stroke="black" stroke-width="1"/><line x1="0" y1="160" x2="400.0" y2="220.0" stroke="black" stroke-width="1"/><line x1="800" y1="160" x2="400.0" y2="220.0" stroke="black" stroke-width="1"/><text x="400.0" y="190.0" text-anchor="middle" font-size="14">enter==1?</text><text x="200.0" y="215.0" text-anchor="middle" font-size="12">True</text><text x="600.0" y="215.0" text-anchor="middle" font-size="12">False</text><rect x="0" y="220.0" width="400.0" height="40" fill="white" stroke="black" stroke-width="1"/><text x="10" y="245.0" font-size="14">versuche = versuche + 1</text><rect x="0" y="260.0" width="400.0" height="60.0" fill="#f0f0f0" stroke="black" stroke-width="1"/><line x1="0" y1="260.0" x2="200.0" y2="320.0" stroke="black" stroke-width="1"/><line x1="400.0" y1="260.0" x2="200.0" y2="320.0" stroke="black" stroke-width="1"/><text x="200.0" y="290.0" text-anchor="middle" font-size="14">geratene_zahl == zufallszahl?</text><text x="100.0" y="315.0" text-anchor="middle" font-size="12">True</text><text x="300.0" y="315.0" text-anchor="middle" font-size="12">False</text><rect x="0" y="320.0" width="200.0" height="40" fill="white" stroke="black" stroke-width="1"/><text x="10" y="345.0" font-size="14">Ausgabe: RICHTIG GERATEN!</text><rect x="0" y="360.0" width="200.0" height="40" fill="white" stroke="black" stroke-width="1"/><text x="10" y="385.0" font-size="14">Ausgabe: Du hast in versuche Versuchen gewonnen!</text><rect x="200.0" y="320.0" width="200.0" height="60.0" fill="#f0f0f0" stroke="black" stroke-width="1"/><line x1="200.0" y1="320.0" x2="300.0" y2="380.0" stroke="black" stroke-width="1"/><line x1="400.0" y1="320.0" x2="300.0" y2="380.0" stroke="black" stroke-width="1"/><text x="300.0" y="350.0" text-anchor="middle" font-size="14">zufallszahl &gt; geratene_zahl?</text><text x="250.0" y="375.0" text-anchor="middle" font-size="12">True</text><text x="350.0" y="375.0" text-anchor="middle" font-size="12">False</text><rect x="200.0" y="380.0" width="100.0" height="40" fill="white" stroke="black" stroke-width="1"/><text x="210.0" y="405.0" font-size="14">Ausgabe: Die gesuchte Zahl ist GRÖSSER ↑</text><rect x="200.0" y="420.0" width="100.0" height="60.0" fill="#f0f0f0" stroke="black" stroke-width="1"/><line x1="200.0" y1="420.0" x2="250.0" y2="480.0" stroke="black" stroke-width="1"/><line x1="300.0" y1="420.0" x2="250.0" y2="480.0" stroke="black" stroke-width="1"/><text x="250.0" y="450.0" text-anchor="middle" font-size="14">versuche &gt;= max_versuche?</text><text x="225.0" y="475.0" text-anchor="middle" font-size="12">True</text><text x="275.0" y="475.0" text-anchor="middle" font-size="12">False</text><rect x="200.0" y="480.0" width="50.0" height="40" fill="white" stroke="black" stroke-width="1"/><text x="210.0" y="505.0" font-size="14">Ausgabe: Leider verloren!</text><rect x="200.0" y="520.0" width="50.0" height="40" fill="white" stroke="black" stroke-width="1"/><text x="210.0" y="545.0" font-size="14">Ausgabe: Die Zahl war: zufallszahl</text><rect x="200.0" y="560.0" width="50.0" height="40" fill="white" stroke="black" stroke-width="1"/><text x="210.0" y="585.0" font-size="14">Ausgabe: === ENDE ===</text><rect x="250.0" y="480.0" width="50.0" height="40" fill="white" stroke="black" stroke-width="1"/><text x="260.0" y="505.0" font-size="14">Ausgabe: Nächster Versuch...</text><rect x="250.0" y="520.0" width="50.0" height="40" fill="white" stroke="black" stroke-width="1"/><text x="260.0" y="545.0" font-size="14">Loop back to Ausgabe: Anzeige auf LCD: Zahl 0-9 S1:- S2:+ S3:X, geratene_zahl</text><rect x="250.0" y="560.0" width="50.0" height="40" fill="white" stroke="black" stroke-width="1"/><rect x="200.0" y="600.0" width="100.0" height="40" fill="white" stroke="black" stroke-width="1"/><text x="210.0" y="625.0" font-size="14">Ende</text><rect x="300.0" y="380.0" width="100.0" height="260.0" fill="white" stroke="black" stroke-width="1"/><rect x="200.0" y="640.0" width="200.0" height="40" fill="white" stroke="black" stroke-width="1"/><text x="210.0" y="665.0" font-size="14">Ausgabe: Die gesuchte Zahl ist KLEINER ↓</text><rect x="200.0" y="680.0" width="200.0" height="60.0" fill="#f0f0f0" stroke="black" stroke-width="1"/><line x1="200.0" y1="680.0" x2="300.0" y2="740.0" stroke="black" stroke-width="1"/><line x1="400.0" y1="680.0" x2="300.0" y2="740.0" stroke="black" stroke-width="1"/><text x="300.0" y="710.0" text-anchor="middle" font-size="14">versuche &gt;= max_versuche?</text><text x="250.0" y="735.0" text-anchor="middle" font-size="12">True</text><text x="350.0" y="735.0" text-anchor="middle" font-size="12">False</text><rect x="200.0" y="740.0" width="100.0" height="40" fill="white" stroke="black" stroke-width="1"/><text x="210.0" y="765.0" font-size="14">Ausgabe: Leider verloren!</text><rect x="200.0" y="780.0" width="100.0" height="40" fill="white" stroke="black" stroke-width="1"/><text x="210.0" y="805.0" font-size="14">Ausgabe: Die Zahl war: zufallszahl</text><rect x="200.0" y="820.0" width="100.0" height="40" fill="white" stroke="black" stroke-width="1"/><text x="210.0" y="845.0" font-size="14">Ausgabe: === ENDE ===</text><rect x="300.0" y="740.0" width="100.0" height="40" fill="white" stroke="black" stroke-width="1"/><text x="310.0" y="765.0" font-size="14">Ausgabe: Nächster Versuch...</text><rect x="300.0" y="780.0" width="100.0" height="40" fill="white" stroke="black" stroke-width="1"/><text x="310.0" y="805.0" font-size="14">Loop back to Ausgabe: Anzeige auf LCD: Zahl 0-9 S1:- S2:+ S3:X, geratene_zahl</text><rect x="300.0" y="820.0" width="100.0" height="40" fill="white" stroke="black" stroke-width="1"/><rect x="0" y="400.0" width="200.0" height="460.0" fill="white" stroke="black" stroke-width="1"/><rect x="0" y="860.0" width="400.0" height="40" fill="white" stroke="black" stroke-width="1"/><text x="10" y="885.0" font-size="14">Ende</text><rect x="400.0" y="220.0" width="400.0" height="680.0" fill="white" stroke="black" stroke-width="1"/><rect x="0" y="900.0" width="800" height="40" fill="white" stroke="black" stroke-width="1"/><text x="10" y="925.0" font-size="14">Loop back to Ausgabe: Anzeige auf LCD: Zahl 0-9 S1:- S2:+ S3:X, geratene_zahl</text></svg>