<svg width="1532" height="940" xmlns="http://www.w3.org/2000/svg" style="font-family: Arial, sans-serif;"><rect x="0" y="0" width="1532" height="40" fill="white" stroke="black" stroke-width="1"/><text x="10" y="17.0" font-size="14">Start</text><rect x="0" y="40" width="1532" height="40" fill="white" stroke="black" stroke-width="1"/><text x="10" y="57.0" font-size="14">Ausgabe: === Zahlerraten-Spiel startet ===</text><rect x="0" y="80" width="1532" height="40" fill="white" stroke="black" stroke-width="1"/><text x="10" y="97.0" font-size="14">init values</text><rect x="0" y="120" width="1532" height="40" fill="white" stroke="black" stroke-width="1"/><text x="10" y="137.0" font-size="14">Ausgabe: Anzeige auf LCD: Zahl 0-9 S1:- S2:+ S3:X, geratene_zahl</text><rect x="0" y="160" width="1532" height="60" fill="#f0f0f0" stroke="black" stroke-width="1"/><line x1="0" y1="160" x2="1432.0" y2="220" stroke="black" stroke-width="1"/><line x1="1532" y1="160" x2="1432.0" y2="220" stroke="black" stroke-width="1"/><text x="766.0" y="190.0" text-anchor="middle" font-size="14">enter==1?</text><text x="716.0" y="215" text-anchor="middle" font-size="12">True</text><text x="1482.0" y="215" text-anchor="middle" font-size="12">False</text><rect x="0" y="220" width="1432.0" height="40" fill="white" stroke="black" stroke-width="1"/><text x="10" y="237.0" font-size="14">versuche = versuche + 1</text><rect x="0" y="260" width="1432.0" height="60" fill="#f0f0f0" stroke="black" stroke-width="1"/><line x1="0" y1="260" x2="404.0" y2="320" stroke="black" stroke-width="1"/><line x1="1432.0" y1="260" x2="404.0" y2="320" stroke="black" stroke-width="1"/><text x="716.0" y="290.0" text-anchor="middle" font-size="14">geratene_zahl == zufallszahl?</text><text x="202.0" y="315" text-anchor="middle" font-size="12">True</text><text x="918.0" y="315" text-anchor="middle" font-size="12">False</text><rect x="0" y="320" width="404.0" height="40" fill="white" stroke="black" stroke-width="1"/><text x="10" y="337.0" font-size="14">Ausgabe: RICHTIG GERATEN!</text><rect x="0" y="360" width="404.0" height="40" fill="white" stroke="black" stroke-width="1"/><text x="10" y="377.0" font-size="14">Ausgabe: Du hast in versuche Versuchen gewonnen!</text><rect x="404.0" y="320" width="1028.0" height="60" fill="#f0f0f0" stroke="black" stroke-width="1"/><line x1="404.0" y1="320" x2="1332.0" y2="380" stroke="black" stroke-width="1"/><line x1="1432.0" y1="320" x2="1332.0" y2="380" stroke="black" stroke-width="1"/><text x="918.0" y="350.0" text-anchor="middle" font-size="14">zufallszahl &gt; geratene_zahl?</text><text x="868.0" y="375" text-anchor="middle" font-size="12">True</text><text x="1382.0" y="375" text-anchor="middle" font-size="12">False</text><rect x="404.0" y="380" width="928.0" height="40" fill="white" stroke="black" stroke-width="1"/><text x="414.0" y="397.0" font-size="14">Ausgabe: Die gesuchte Zahl ist GRÖSSER ↑</text><rect x="404.0" y="420" width="928.0" height="60" fill="#f0f0f0" stroke="black" stroke-width="1"/><line x1="404.0" y1="420" x2="696.0" y2="480" stroke="black" stroke-width="1"/><line x1="1332.0" y1="420" x2="696.0" y2="480" stroke="black" stroke-width="1"/><text x="868.0" y="450.0" text-anchor="middle" font-size="14">versuche &gt;= max_versuche?</text><text x="550.0" y="475" text-anchor="middle" font-size="12">True</text><text x="1014.0" y="475" text-anchor="middle" font-size="12">False</text><rect x="404.0" y="480" width="292.0" height="40" fill="white" stroke="black" stroke-width="1"/><text x="414.0" y="497.0" font-size="14">Ausgabe: Leider verloren!</text><rect x="404.0" y="520" width="292.0" height="40" fill="white" stroke="black" stroke-width="1"/><text x="414.0" y="537.0" font-size="14">Ausgabe: Die Zahl war: zufallszahl</text><rect x="404.0" y="560" width="292.0" height="40" fill="white" stroke="black" stroke-width="1"/><text x="414.0" y="577.0" font-size="14">Ausgabe: === ENDE ===</text><rect x="696.0" y="480" width="636.0" height="40" fill="white" stroke="black" stroke-width="1"/><text x="706.0" y="497.0" font-size="14">Ausgabe: Nächster Versuch...</text><rect x="696.0" y="520" width="636.0" height="40" fill="white" stroke="black" stroke-width="1"/><text x="706.0" y="537.0" font-size="14">Loop back to Ausgabe: Anzeige auf LCD: Zahl 0-9 S1:- S2:+ S3:X, geratene_zahl</text><rect x="696.0" y="560" width="636.0" height="40" fill="white" stroke="black" stroke-width="1"/><rect x="404.0" y="600" width="928.0" height="40" fill="white" stroke="black" stroke-width="1"/><text x="414.0" y="617.0" font-size="14">Ende</text><rect x="1332.0" y="380" width="100.0" height="260" fill="white" stroke="black" stroke-width="1"/><rect x="404.0" y="640" width="1028.0" height="40" fill="white" stroke="black" stroke-width="1"/><text x="414.0" y="657.0" font-size="14">Ausgabe: Die gesuchte Zahl ist KLEINER ↓</text><rect x="404.0" y="680" width="1028.0" height="60" fill="#f0f0f0" stroke="black" stroke-width="1"/><line x1="404.0" y1="680" x2="727.4655172413793" y2="740" stroke="black" stroke-width="1"/><line x1="1432.0" y1="680" x2="727.4655172413793" y2="740" stroke="black" stroke-width="1"/><text x="918.0" y="710.0" text-anchor="middle" font-size="14">versuche &gt;= max_versuche?</text><text x="565.7327586206897" y="735" text-anchor="middle" font-size="12">True</text><text x="1079.7327586206898" y="735" text-anchor="middle" font-size="12">False</text><rect x="404.0" y="740" width="323.4655172413793" height="40" fill="white" stroke="black" stroke-width="1"/><text x="414.0" y="757.0" font-size="14">Ausgabe: Leider verloren!</text><rect x="404.0" y="780" width="323.4655172413793" height="40" fill="white" stroke="black" stroke-width="1"/><text x="414.0" y="797.0" font-size="14">Ausgabe: Die Zahl war: zufallszahl</text><rect x="404.0" y="820" width="323.4655172413793" height="40" fill="white" stroke="black" stroke-width="1"/><text x="414.0" y="837.0" font-size="14">Ausgabe: === ENDE ===</text><rect x="727.4655172413793" y="740" width="704.5344827586207" height="40" fill="white" stroke="black" stroke-width="1"/><text x="737.4655172413793" y="757.0" font-size="14">Ausgabe: Nächster Versuch...</text><rect x="727.4655172413793" y="780" width="704.5344827586207" height="40" fill="white" stroke="black" stroke-width="1"/><text x="737.4655172413793" y="797.0" font-size="14">Loop back to Ausgabe: Anzeige auf LCD: Zahl 0-9 S1:- S2:+ S3:X, geratene_zahl</text><rect x="727.4655172413793" y="820" width="704.5344827586207" height="40" fill="white" stroke="black" stroke-width="1"/><rect x="0" y="400" width="404.0" height="460" fill="white" stroke="black" stroke-width="1"/><rect x="0" y="860" width="1432.0" height="40" fill="white" stroke="black" stroke-width="1"/><text x="10" y="877.0" font-size="14">Ende</text><rect x="1432.0" y="220" width="100.0" height="680" fill="white" stroke="black" stroke-width="1"/><rect x="0" y="900" width="1532" height="40" fill="white" stroke="black" stroke-width="1"/><text x="10" y="917.0" font-size="14">Loop back to Ausgabe: Anzeige auf LCD: Zahl 0-9 S1:- S2:+ S3:X, geratene_zahl</text></svg>